<?xml version="1.0" encoding="UTF-8" standalone="no"?><svg xmlns="http://www.w3.org/2000/svg" xmlns:xlink="http://www.w3.org/1999/xlink" clip-rule="evenodd" stroke-miterlimit="10" viewBox="0 0 454 70"><desc>SVG generated by Keynote</desc><defs></defs><g transform="matrix(1.00, 0.00, -0.00, -1.00, 0.0, 70.0)"><text xml:space="preserve" font-family="Georgia,Georgia" font-size="70.0" fill="#D93D2A" transform="matrix(1.00, 0.00, -0.00, -1.00, 1.8, 16.3)">я</text><text xml:space="preserve" font-family="Georgia,Georgia" font-size="70.0" fill="#D93D2A" transform="matrix(1.00, 0.00, -0.00, -1.00, 40.1, 16.3)">к</text><text xml:space="preserve" font-family="Georgia,Georgia" font-size="70.0" fill="#D93D2A" transform="matrix(1.00, 0.00, -0.00, -1.00, 78.7, 16.3)"> </text><text xml:space="preserve" font-family="Georgia,Georgia" font-size="70.0" fill="#D93D2A" transform="matrix(1.00, 0.00, -0.00, -1.00, 95.6, 16.3)">ц</text><text xml:space="preserve" font-family="Georgia,Georgia" font-size="70.0" fill="#D93D2A" transform="matrix(1.00, 0.00, -0.00, -1.00, 137.7, 16.3)">е</text><text xml:space="preserve" font-family="Georgia,Georgia" font-size="70.0" fill="#D93D2A" transform="matrix(1.00, 0.00, -0.00, -1.00, 171.6, 16.3)"> </text><text xml:space="preserve" font-family="Georgia,Georgia" font-size="70.0" fill="#D93D2A" transform="matrix(1.00, 0.00, -0.00, -1.00, 188.5, 16.3)">р</text><text xml:space="preserve" font-family="Georgia,Georgia" font-size="70.0" fill="#D93D2A" transform="matrix(1.00, 0.00, -0.00, -1.00, 228.5, 16.3)">о</text><text xml:space="preserve" font-family="Georgia,Georgia" font-size="70.0" fill="#D93D2A" transform="matrix(1.00, 0.00, -0.00, -1.00, 266.2, 16.3)">б</text><text xml:space="preserve" font-family="Georgia,Georgia" font-size="70.0" fill="#D93D2A" transform="matrix(1.00, 0.00, -0.00, -1.00, 304.1, 16.3)">и</text><text xml:space="preserve" font-family="Georgia,Georgia" font-size="70.0" fill="#D93D2A" transform="matrix(1.00, 0.00, -0.00, -1.00, 346.9, 16.3)">т</text><text xml:space="preserve" font-family="Georgia,Georgia" font-size="70.0" fill="#D93D2A" transform="matrix(1.00, 0.00, -0.00, -1.00, 379.9, 16.3)">и</text><text xml:space="preserve" font-family="Georgia,Georgia" font-size="70.0" fill="#D93D2A" transform="matrix(1.00, 0.00, -0.00, -1.00, 422.7, 16.3)">?</text></g></svg>