<?xml version="1.0" encoding="UTF-8" standalone="no"?><svg xmlns="http://www.w3.org/2000/svg" xmlns:xlink="http://www.w3.org/1999/xlink" clip-rule="evenodd" stroke-miterlimit="10" viewBox="0 0 287 39"><desc>SVG generated by Keynote</desc><defs></defs><g transform="matrix(1.00, 0.00, -0.00, -1.00, 0.0, 39.0)"><path d="M 2.0 37.0 L 285.0 37.0 L 285.0 1.0 L 2.0 1.0 Z M 1.6 37.3 " fill="#0D0E15"></path><g><clipPath id="clip0x7f8ceae95890"><path d="M -1.4 -1.7 L 288.1 -1.7 L 288.1 40.3 L -1.4 40.3 Z M -1.4 -1.7 "></path></clipPath><g clip-path="url(#clip0x7f8ceae95890)"><text xml:space="preserve" font-family="Menlo-Bold,Menlo" font-weight="bold" font-size="24.0" fill="#C8C2BA" transform="matrix(1.00, 0.00, -0.00, -1.00, 6.1, 11.0)">n</text><text xml:space="preserve" font-family="Menlo-Bold,Menlo" font-weight="bold" font-size="24.0" fill="#C8C2BA" transform="matrix(1.00, 0.00, -0.00, -1.00, 20.5, 11.0)">p</text><text xml:space="preserve" font-family="Menlo-Bold,Menlo" font-weight="bold" font-size="24.0" fill="#C8C2BA" transform="matrix(1.00, 0.00, -0.00, -1.00, 35.0, 11.0)">m</text><text xml:space="preserve" font-family="Menlo-Bold,Menlo" font-weight="bold" font-size="24.0" fill="#C8C2BA" transform="matrix(1.00, 0.00, -0.00, -1.00, 49.4, 11.0)"> </text><text xml:space="preserve" font-family="Menlo-Bold,Menlo" font-weight="bold" font-size="24.0" fill="#C8C2BA" transform="matrix(1.00, 0.00, -0.00, -1.00, 63.9, 11.0)">i</text><text xml:space="preserve" font-family="Menlo-Bold,Menlo" font-weight="bold" font-size="24.0" fill="#C8C2BA" transform="matrix(1.00, 0.00, -0.00, -1.00, 78.3, 11.0)">n</text><text xml:space="preserve" font-family="Menlo-Bold,Menlo" font-weight="bold" font-size="24.0" fill="#C8C2BA" transform="matrix(1.00, 0.00, -0.00, -1.00, 92.8, 11.0)">s</text><text xml:space="preserve" font-family="Menlo-Bold,Menlo" font-weight="bold" font-size="24.0" fill="#C8C2BA" transform="matrix(1.00, 0.00, -0.00, -1.00, 107.2, 11.0)">t</text><text xml:space="preserve" font-family="Menlo-Bold,Menlo" font-weight="bold" font-size="24.0" fill="#C8C2BA" transform="matrix(1.00, 0.00, -0.00, -1.00, 121.7, 11.0)">a</text><text xml:space="preserve" font-family="Menlo-Bold,Menlo" font-weight="bold" font-size="24.0" fill="#C8C2BA" transform="matrix(1.00, 0.00, -0.00, -1.00, 136.1, 11.0)">l</text><text xml:space="preserve" font-family="Menlo-Bold,Menlo" font-weight="bold" font-size="24.0" fill="#C8C2BA" transform="matrix(1.00, 0.00, -0.00, -1.00, 150.6, 11.0)">l</text><text xml:space="preserve" font-family="Menlo-Bold,Menlo" font-weight="bold" font-size="24.0" fill="#C8C2BA" transform="matrix(1.00, 0.00, -0.00, -1.00, 165.0, 11.0)"> </text><text xml:space="preserve" font-family="Menlo-Bold,Menlo" font-weight="bold" font-size="24.0" fill="#C8C2BA" transform="matrix(1.00, 0.00, -0.00, -1.00, 179.5, 11.0)">-</text><text xml:space="preserve" font-family="Menlo-Bold,Menlo" font-weight="bold" font-size="24.0" fill="#C8C2BA" transform="matrix(1.00, 0.00, -0.00, -1.00, 193.9, 11.0)">g</text><text xml:space="preserve" font-family="Menlo-Bold,Menlo" font-weight="bold" font-size="24.0" fill="#C8C2BA" transform="matrix(1.00, 0.00, -0.00, -1.00, 208.4, 11.0)"> </text><text xml:space="preserve" font-family="Menlo-Bold,Menlo" font-weight="bold" font-size="24.0" fill="#C8C2BA" transform="matrix(1.00, 0.00, -0.00, -1.00, 222.8, 11.0)">g</text><text xml:space="preserve" font-family="Menlo-Bold,Menlo" font-weight="bold" font-size="24.0" fill="#C8C2BA" transform="matrix(1.00, 0.00, -0.00, -1.00, 237.3, 11.0)">u</text><text xml:space="preserve" font-family="Menlo-Bold,Menlo" font-weight="bold" font-size="24.0" fill="#C8C2BA" transform="matrix(1.00, 0.00, -0.00, -1.00, 251.7, 11.0)">l</text><text xml:space="preserve" font-family="Menlo-Bold,Menlo" font-weight="bold" font-size="24.0" fill="#C8C2BA" transform="matrix(1.00, 0.00, -0.00, -1.00, 266.2, 11.0)">p</text></g></g></g></svg>