<?xml version="1.0" encoding="UTF-8" standalone="no"?><svg xmlns="http://www.w3.org/2000/svg" xmlns:xlink="http://www.w3.org/1999/xlink" clip-rule="evenodd" stroke-miterlimit="10" viewBox="0 0 158 26"><desc>SVG generated by Keynote</desc><defs></defs><g transform="matrix(1.00, 0.00, -0.00, -1.00, 0.0, 26.0)"><text xml:space="preserve" font-family="Palatino-Italic,Palatino" font-style="italic" font-size="24.0" fill="#404040" transform="matrix(1.00, 0.00, -0.00, -1.00, 1.0, 7.7)">ж</text><text xml:space="preserve" font-family="Palatino-Italic,Palatino" font-style="italic" font-size="24.0" fill="#404040" transform="matrix(1.00, 0.00, -0.00, -1.00, 18.8, 7.7)">и</text><text xml:space="preserve" font-family="Palatino-Italic,Palatino" font-style="italic" font-size="24.0" fill="#404040" transform="matrix(1.00, 0.00, -0.00, -1.00, 32.2, 7.7)">т</text><text xml:space="preserve" font-family="Palatino-Italic,Palatino" font-style="italic" font-size="24.0" fill="#404040" transform="matrix(1.00, 0.00, -0.00, -1.00, 50.9, 7.7)">т</text><text xml:space="preserve" font-family="Palatino-Italic,Palatino" font-style="italic" font-size="24.0" fill="#404040" transform="matrix(1.00, 0.00, -0.00, -1.00, 69.5, 7.7)">я</text><text xml:space="preserve" font-family="Palatino-Italic,Palatino" font-style="italic" font-size="24.0" fill="#404040" transform="matrix(1.00, 0.00, -0.00, -1.00, 81.5, 7.7)"> </text><text xml:space="preserve" font-family="Palatino-Italic,Palatino" font-style="italic" font-size="24.0" fill="#404040" transform="matrix(1.00, 0.00, -0.00, -1.00, 87.5, 7.7)">ц</text><text xml:space="preserve" font-family="Palatino-Italic,Palatino" font-style="italic" font-size="24.0" fill="#404040" transform="matrix(1.00, 0.00, -0.00, -1.00, 101.2, 7.7)">е</text><text xml:space="preserve" font-family="Palatino-Italic,Palatino" font-style="italic" font-size="24.0" fill="#404040" transform="matrix(1.00, 0.00, -0.00, -1.00, 110.5, 7.7)"> </text><text xml:space="preserve" font-family="Palatino-Italic,Palatino" font-style="italic" font-size="24.0" fill="#404040" transform="matrix(1.00, 0.00, -0.00, -1.00, 116.5, 7.7)">б</text><text xml:space="preserve" font-family="Palatino-Italic,Palatino" font-style="italic" font-size="24.0" fill="#404040" transform="matrix(1.00, 0.00, -0.00, -1.00, 128.0, 7.7)">і</text><text xml:space="preserve" font-family="Palatino-Italic,Palatino" font-style="italic" font-size="24.0" fill="#404040" transform="matrix(1.00, 0.00, -0.00, -1.00, 134.6, 7.7)">л</text><text xml:space="preserve" font-family="Palatino-Italic,Palatino" font-style="italic" font-size="24.0" fill="#404040" transform="matrix(1.00, 0.00, -0.00, -1.00, 146.5, 7.7)">ь</text></g></svg>