<?xml version="1.0" encoding="UTF-8" standalone="no"?><svg xmlns="http://www.w3.org/2000/svg" xmlns:xlink="http://www.w3.org/1999/xlink" clip-rule="evenodd" stroke-miterlimit="10" viewBox="0 0 221 29"><desc>SVG generated by Keynote</desc><defs></defs><g transform="matrix(1.00, 0.00, -0.00, -1.00, 0.0, 29.0)"><text xml:space="preserve" font-family="Palatino-Roman,Palatino" font-size="24.0" fill="#404040" transform="matrix(1.00, 0.00, -0.00, -1.00, 1.9, 9.2)">М</text><text xml:space="preserve" font-family="Palatino-Roman,Palatino" font-size="24.0" fill="#404040" transform="matrix(1.00, 0.00, -0.00, -1.00, 24.6, 9.2)">и</text><text xml:space="preserve" font-family="Palatino-Roman,Palatino" font-size="24.0" fill="#404040" transform="matrix(1.00, 0.00, -0.00, -1.00, 39.8, 9.2)">к</text><text xml:space="preserve" font-family="Palatino-Roman,Palatino" font-size="24.0" fill="#404040" transform="matrix(1.00, 0.00, -0.00, -1.00, 52.4, 9.2)">о</text><text xml:space="preserve" font-family="Palatino-Roman,Palatino" font-size="24.0" fill="#404040" transform="matrix(1.00, 0.00, -0.00, -1.00, 65.8, 9.2)">л</text><text xml:space="preserve" font-family="Palatino-Roman,Palatino" font-size="24.0" fill="#404040" transform="matrix(1.00, 0.00, -0.00, -1.00, 79.6, 9.2)">а</text><text xml:space="preserve" font-family="Palatino-Roman,Palatino" font-size="24.0" fill="#404040" transform="matrix(1.00, 0.00, -0.00, -1.00, 91.6, 9.2)"> </text><text xml:space="preserve" font-family="Palatino-Roman,Palatino" font-size="24.0" fill="#404040" transform="matrix(1.00, 0.00, -0.00, -1.00, 97.6, 9.2)">П</text><text xml:space="preserve" font-family="Palatino-Roman,Palatino" font-size="24.0" fill="#404040" transform="matrix(1.00, 0.00, -0.00, -1.00, 117.1, 9.2)">а</text><text xml:space="preserve" font-family="Palatino-Roman,Palatino" font-size="24.0" fill="#404040" transform="matrix(1.00, 0.00, -0.00, -1.00, 129.1, 9.2)">р</text><text xml:space="preserve" font-family="Palatino-Roman,Palatino" font-size="24.0" fill="#404040" transform="matrix(1.00, 0.00, -0.00, -1.00, 143.5, 9.2)">ф</text><text xml:space="preserve" font-family="Palatino-Roman,Palatino" font-size="24.0" fill="#404040" transform="matrix(1.00, 0.00, -0.00, -1.00, 161.8, 9.2)">е</text><text xml:space="preserve" font-family="Palatino-Roman,Palatino" font-size="24.0" fill="#404040" transform="matrix(1.00, 0.00, -0.00, -1.00, 173.3, 9.2)">н</text><text xml:space="preserve" font-family="Palatino-Roman,Palatino" font-size="24.0" fill="#404040" transform="matrix(1.00, 0.00, -0.00, -1.00, 187.3, 9.2)">ю</text><text xml:space="preserve" font-family="Palatino-Roman,Palatino" font-size="24.0" fill="#404040" transform="matrix(1.00, 0.00, -0.00, -1.00, 206.8, 9.2)">к</text></g></svg>