<?xml version="1.0" encoding="UTF-8" standalone="no"?><svg xmlns="http://www.w3.org/2000/svg" xmlns:xlink="http://www.w3.org/1999/xlink" clip-rule="evenodd" stroke-miterlimit="10" viewBox="0 0 390 38"><desc>SVG generated by Keynote</desc><defs></defs><g transform="matrix(1.00, 0.00, -0.00, -1.00, 0.0, 38.0)"><text xml:space="preserve" font-family="ZapfDingbatsITC,Zapf Dingbats" font-size="20.5" fill="#919191" transform="matrix(1.00, 0.00, -0.00, -1.00, 0.0, 16.0)">❖</text><text xml:space="preserve" font-family="Palatino-Roman,Palatino" font-size="34.2" fill="#404040" transform="matrix(1.00, 0.00, -0.00, -1.00, 35.2, 11.4)">п</text><text xml:space="preserve" font-family="Palatino-Roman,Palatino" font-size="34.2" fill="#404040" transform="matrix(1.00, 0.00, -0.00, -1.00, 56.9, 11.4)">и</text><text xml:space="preserve" font-family="Palatino-Roman,Palatino" font-size="34.2" fill="#404040" transform="matrix(1.00, 0.00, -0.00, -1.00, 78.5, 11.4)">ш</text><text xml:space="preserve" font-family="Palatino-Roman,Palatino" font-size="34.2" fill="#404040" transform="matrix(1.00, 0.00, -0.00, -1.00, 109.3, 11.4)">е</text><text xml:space="preserve" font-family="Palatino-Roman,Palatino" font-size="34.2" fill="#404040" transform="matrix(1.00, 0.00, -0.00, -1.00, 125.6, 11.4)">м</text><text xml:space="preserve" font-family="Palatino-Roman,Palatino" font-size="34.2" fill="#404040" transform="matrix(1.00, 0.00, -0.00, -1.00, 150.7, 11.4)">о</text><text xml:space="preserve" font-family="Palatino-Roman,Palatino" font-size="34.2" fill="#404040" transform="matrix(1.00, 0.00, -0.00, -1.00, 169.9, 11.4)"> </text><text xml:space="preserve" font-family="Palatino-Roman,Palatino" font-size="34.2" fill="#404040" transform="matrix(1.00, 0.00, -0.00, -1.00, 178.4, 11.4)">ф</text><text xml:space="preserve" font-family="Palatino-Roman,Palatino" font-size="34.2" fill="#404040" transform="matrix(1.00, 0.00, -0.00, -1.00, 204.5, 11.4)">а</text><text xml:space="preserve" font-family="Palatino-Roman,Palatino" font-size="34.2" fill="#404040" transform="matrix(1.00, 0.00, -0.00, -1.00, 221.6, 11.4)">й</text><text xml:space="preserve" font-family="Palatino-Roman,Palatino" font-size="34.2" fill="#404040" transform="matrix(1.00, 0.00, -0.00, -1.00, 243.2, 11.4)">л</text><text xml:space="preserve" font-family="Palatino-Roman,Palatino" font-size="34.2" fill="#404040" transform="matrix(1.00, 0.00, -0.00, -1.00, 262.8, 11.4)"> </text><text xml:space="preserve" font-family="Palatino-Roman,Palatino" font-size="34.2" fill="#404040" transform="matrix(1.00, 0.00, -0.00, -1.00, 271.4, 11.4)">g</text><text xml:space="preserve" font-family="Palatino-Roman,Palatino" font-size="34.2" fill="#404040" transform="matrix(1.00, 0.00, -0.00, -1.00, 290.4, 11.4)">u</text><text xml:space="preserve" font-family="Palatino-Roman,Palatino" font-size="34.2" fill="#404040" transform="matrix(1.00, 0.00, -0.00, -1.00, 311.0, 11.4)">l</text><text xml:space="preserve" font-family="Palatino-Roman,Palatino" font-size="34.2" fill="#404040" transform="matrix(1.00, 0.00, -0.00, -1.00, 321.0, 11.4)">p</text><text xml:space="preserve" font-family="Palatino-Roman,Palatino" font-size="34.2" fill="#404040" transform="matrix(1.00, 0.00, -0.00, -1.00, 341.6, 11.4)">ﬁ</text><text xml:space="preserve" font-family="Palatino-Roman,Palatino" font-size="34.2" fill="#404040" transform="matrix(1.00, 0.00, -0.00, -1.00, 362.2, 11.4)">l</text><text xml:space="preserve" font-family="Palatino-Roman,Palatino" font-size="34.2" fill="#404040" transform="matrix(1.00, 0.00, -0.00, -1.00, 372.2, 11.4)">e</text></g></svg>