<?xml version="1.0" encoding="UTF-8" standalone="no"?><svg xmlns="http://www.w3.org/2000/svg" xmlns:xlink="http://www.w3.org/1999/xlink" clip-rule="evenodd" stroke-miterlimit="10" viewBox="0 0 258 39"><desc>SVG generated by Keynote</desc><defs></defs><g transform="matrix(1.00, 0.00, -0.00, -1.00, 0.0, 39.0)"><path d="M 2.0 37.0 L 256.0 37.0 L 256.0 1.0 L 2.0 1.0 Z M 1.7 37.2 " fill="#0D0E15"></path><g><clipPath id="clip0x600002ea4aa0"><path d="M -1.3 -1.7 L 259.3 -1.7 L 259.3 40.2 L -1.3 40.2 Z M -1.3 -1.7 "></path></clipPath><g clip-path="url(#clip0x600002ea4aa0)"><text xml:space="preserve" font-family="Menlo-Bold,Menlo" font-weight="bold" font-size="24.0" fill="#C8C2BA" transform="matrix(1.00, 0.00, -0.00, -1.00, 6.2, 10.9)">h</text><text xml:space="preserve" font-family="Menlo-Bold,Menlo" font-weight="bold" font-size="24.0" fill="#C8C2BA" transform="matrix(1.00, 0.00, -0.00, -1.00, 20.6, 10.9)">t</text><text xml:space="preserve" font-family="Menlo-Bold,Menlo" font-weight="bold" font-size="24.0" fill="#C8C2BA" transform="matrix(1.00, 0.00, -0.00, -1.00, 35.1, 10.9)">t</text><text xml:space="preserve" font-family="Menlo-Bold,Menlo" font-weight="bold" font-size="24.0" fill="#C8C2BA" transform="matrix(1.00, 0.00, -0.00, -1.00, 49.5, 10.9)">p</text><text xml:space="preserve" font-family="Menlo-Bold,Menlo" font-weight="bold" font-size="24.0" fill="#C8C2BA" transform="matrix(1.00, 0.00, -0.00, -1.00, 64.0, 10.9)">:</text><text xml:space="preserve" font-family="Menlo-Bold,Menlo" font-weight="bold" font-size="24.0" fill="#C8C2BA" transform="matrix(1.00, 0.00, -0.00, -1.00, 78.4, 10.9)">/</text><text xml:space="preserve" font-family="Menlo-Bold,Menlo" font-weight="bold" font-size="24.0" fill="#C8C2BA" transform="matrix(1.00, 0.00, -0.00, -1.00, 92.9, 10.9)">/</text><text xml:space="preserve" font-family="Menlo-Bold,Menlo" font-weight="bold" font-size="24.0" fill="#C8C2BA" transform="matrix(1.00, 0.00, -0.00, -1.00, 107.3, 10.9)">n</text><text xml:space="preserve" font-family="Menlo-Bold,Menlo" font-weight="bold" font-size="24.0" fill="#C8C2BA" transform="matrix(1.00, 0.00, -0.00, -1.00, 121.8, 10.9)">o</text><text xml:space="preserve" font-family="Menlo-Bold,Menlo" font-weight="bold" font-size="24.0" fill="#C8C2BA" transform="matrix(1.00, 0.00, -0.00, -1.00, 136.2, 10.9)">d</text><text xml:space="preserve" font-family="Menlo-Bold,Menlo" font-weight="bold" font-size="24.0" fill="#C8C2BA" transform="matrix(1.00, 0.00, -0.00, -1.00, 150.7, 10.9)">e</text><text xml:space="preserve" font-family="Menlo-Bold,Menlo" font-weight="bold" font-size="24.0" fill="#C8C2BA" transform="matrix(1.00, 0.00, -0.00, -1.00, 165.1, 10.9)">j</text><text xml:space="preserve" font-family="Menlo-Bold,Menlo" font-weight="bold" font-size="24.0" fill="#C8C2BA" transform="matrix(1.00, 0.00, -0.00, -1.00, 179.6, 10.9)">s</text><text xml:space="preserve" font-family="Menlo-Bold,Menlo" font-weight="bold" font-size="24.0" fill="#C8C2BA" transform="matrix(1.00, 0.00, -0.00, -1.00, 194.1, 10.9)">.</text><text xml:space="preserve" font-family="Menlo-Bold,Menlo" font-weight="bold" font-size="24.0" fill="#C8C2BA" transform="matrix(1.00, 0.00, -0.00, -1.00, 208.5, 10.9)">o</text><text xml:space="preserve" font-family="Menlo-Bold,Menlo" font-weight="bold" font-size="24.0" fill="#C8C2BA" transform="matrix(1.00, 0.00, -0.00, -1.00, 223.0, 10.9)">r</text><text xml:space="preserve" font-family="Menlo-Bold,Menlo" font-weight="bold" font-size="24.0" fill="#C8C2BA" transform="matrix(1.00, 0.00, -0.00, -1.00, 237.4, 10.9)">g</text><path d="M 4.5 27.9 L 250.1 27.9 " fill="none" stroke="#C8C2BA" stroke-width="1.05" transform="matrix(1.00, 0.00, 0.00, -1.00, 1.7, 37.2)"></path></g></g></g></svg>