<?xml version="1.0" encoding="UTF-8" standalone="no"?><svg xmlns="http://www.w3.org/2000/svg" xmlns:xlink="http://www.w3.org/1999/xlink" clip-rule="evenodd" stroke-miterlimit="10" viewBox="0 0 362 38"><desc>SVG generated by Keynote</desc><defs></defs><g transform="matrix(1.00, 0.00, -0.00, -1.00, 0.0, 38.0)"><text xml:space="preserve" font-family="ZapfDingbatsITC,Zapf Dingbats" font-size="20.5" fill="#919191" transform="matrix(1.00, 0.00, -0.00, -1.00, 0.0, 16.0)">❖</text><text xml:space="preserve" font-family="Palatino-Roman,Palatino" font-size="34.2" fill="#404040" transform="matrix(1.00, 0.00, -0.00, -1.00, 35.2, 11.4)">п</text><text xml:space="preserve" font-family="Palatino-Roman,Palatino" font-size="34.2" fill="#404040" transform="matrix(1.00, 0.00, -0.00, -1.00, 56.9, 11.4)">о</text><text xml:space="preserve" font-family="Palatino-Roman,Palatino" font-size="34.2" fill="#404040" transform="matrix(1.00, 0.00, -0.00, -1.00, 76.0, 11.4)">т</text><text xml:space="preserve" font-family="Palatino-Roman,Palatino" font-size="34.2" fill="#404040" transform="matrix(1.00, 0.00, -0.00, -1.00, 92.1, 11.4)">р</text><text xml:space="preserve" font-family="Palatino-Roman,Palatino" font-size="34.2" fill="#404040" transform="matrix(1.00, 0.00, -0.00, -1.00, 112.7, 11.4)">і</text><text xml:space="preserve" font-family="Palatino-Roman,Palatino" font-size="34.2" fill="#404040" transform="matrix(1.00, 0.00, -0.00, -1.00, 122.6, 11.4)">б</text><text xml:space="preserve" font-family="Palatino-Roman,Palatino" font-size="34.2" fill="#404040" transform="matrix(1.00, 0.00, -0.00, -1.00, 141.8, 11.4)">е</text><text xml:space="preserve" font-family="Palatino-Roman,Palatino" font-size="34.2" fill="#404040" transform="matrix(1.00, 0.00, -0.00, -1.00, 158.1, 11.4)">н</text><text xml:space="preserve" font-family="Palatino-Roman,Palatino" font-size="34.2" fill="#404040" transform="matrix(1.00, 0.00, -0.00, -1.00, 178.1, 11.4)"> </text><text xml:space="preserve" font-family="Palatino-Roman,Palatino" font-size="34.2" fill="#404040" transform="matrix(1.00, 0.00, -0.00, -1.00, 186.7, 11.4)">с</text><text xml:space="preserve" font-family="Palatino-Roman,Palatino" font-size="34.2" fill="#404040" transform="matrix(1.00, 0.00, -0.00, -1.00, 201.8, 11.4)">а</text><text xml:space="preserve" font-family="Palatino-Roman,Palatino" font-size="34.2" fill="#404040" transform="matrix(1.00, 0.00, -0.00, -1.00, 218.9, 11.4)">м</text><text xml:space="preserve" font-family="Palatino-Roman,Palatino" font-size="34.2" fill="#404040" transform="matrix(1.00, 0.00, -0.00, -1.00, 244.0, 11.4)"> </text><text xml:space="preserve" font-family="Palatino-Roman,Palatino" font-size="34.2" fill="#404040" transform="matrix(1.00, 0.00, -0.00, -1.00, 252.6, 11.4)">G</text><text xml:space="preserve" font-family="Palatino-Roman,Palatino" font-size="34.2" fill="#404040" transform="matrix(1.00, 0.00, -0.00, -1.00, 278.7, 11.4)">u</text><text xml:space="preserve" font-family="Palatino-Roman,Palatino" font-size="34.2" fill="#404040" transform="matrix(1.00, 0.00, -0.00, -1.00, 299.4, 11.4)">l</text><text xml:space="preserve" font-family="Palatino-Roman,Palatino" font-size="34.2" fill="#404040" transform="matrix(1.00, 0.00, -0.00, -1.00, 309.3, 11.4)">p</text><text xml:space="preserve" font-family="Palatino-Roman,Palatino" font-size="34.2" fill="#404040" transform="matrix(1.00, 0.00, -0.00, -1.00, 329.9, 11.4)">.</text><text xml:space="preserve" font-family="Palatino-Roman,Palatino" font-size="34.2" fill="#404040" transform="matrix(1.00, 0.00, -0.00, -1.00, 338.4, 11.4)">j</text><text xml:space="preserve" font-family="Palatino-Roman,Palatino" font-size="34.2" fill="#404040" transform="matrix(1.00, 0.00, -0.00, -1.00, 346.4, 11.4)">s</text></g></svg>