<?xml version="1.0" encoding="UTF-8" standalone="no"?><svg xmlns="http://www.w3.org/2000/svg" xmlns:xlink="http://www.w3.org/1999/xlink" clip-rule="evenodd" stroke-miterlimit="10" viewBox="0 0 229 39"><desc>SVG generated by Keynote</desc><defs></defs><g transform="matrix(1.00, 0.00, -0.00, -1.00, 0.0, 39.0)"><path d="M 2.0 37.0 L 228.0 37.0 L 228.0 1.0 L 2.0 1.0 Z M 1.8 37.3 " fill="#0D0E15"></path><g><clipPath id="clip0x608002cbba80"><path d="M -1.2 -1.7 L 230.5 -1.7 L 230.5 40.3 L -1.2 40.3 Z M -1.2 -1.7 "></path></clipPath><g clip-path="url(#clip0x608002cbba80)"><text xml:space="preserve" font-family="Menlo-Bold,Menlo" font-weight="bold" font-size="24.0" fill="#C8C2BA" transform="matrix(1.00, 0.00, -0.00, -1.00, 6.3, 11.0)">g</text><text xml:space="preserve" font-family="Menlo-Bold,Menlo" font-weight="bold" font-size="24.0" fill="#C8C2BA" transform="matrix(1.00, 0.00, -0.00, -1.00, 20.7, 11.0)">u</text><text xml:space="preserve" font-family="Menlo-Bold,Menlo" font-weight="bold" font-size="24.0" fill="#C8C2BA" transform="matrix(1.00, 0.00, -0.00, -1.00, 35.2, 11.0)">l</text><text xml:space="preserve" font-family="Menlo-Bold,Menlo" font-weight="bold" font-size="24.0" fill="#C8C2BA" transform="matrix(1.00, 0.00, -0.00, -1.00, 49.7, 11.0)">p</text><text xml:space="preserve" font-family="Menlo-Bold,Menlo" font-weight="bold" font-size="24.0" fill="#C8C2BA" transform="matrix(1.00, 0.00, -0.00, -1.00, 64.1, 11.0)">f</text><text xml:space="preserve" font-family="Menlo-Bold,Menlo" font-weight="bold" font-size="24.0" fill="#C8C2BA" transform="matrix(1.00, 0.00, -0.00, -1.00, 78.6, 11.0)">i</text><text xml:space="preserve" font-family="Menlo-Bold,Menlo" font-weight="bold" font-size="24.0" fill="#C8C2BA" transform="matrix(1.00, 0.00, -0.00, -1.00, 93.0, 11.0)">l</text><text xml:space="preserve" font-family="Menlo-Bold,Menlo" font-weight="bold" font-size="24.0" fill="#C8C2BA" transform="matrix(1.00, 0.00, -0.00, -1.00, 107.5, 11.0)">e</text><text xml:space="preserve" font-family="Menlo-Bold,Menlo" font-weight="bold" font-size="24.0" fill="#C8C2BA" transform="matrix(1.00, 0.00, -0.00, -1.00, 121.9, 11.0)">.</text><text xml:space="preserve" font-family="Menlo-Bold,Menlo" font-weight="bold" font-size="24.0" fill="#C8C2BA" transform="matrix(1.00, 0.00, -0.00, -1.00, 136.4, 11.0)">c</text><text xml:space="preserve" font-family="Menlo-Bold,Menlo" font-weight="bold" font-size="24.0" fill="#C8C2BA" transform="matrix(1.00, 0.00, -0.00, -1.00, 150.8, 11.0)">o</text><text xml:space="preserve" font-family="Menlo-Bold,Menlo" font-weight="bold" font-size="24.0" fill="#C8C2BA" transform="matrix(1.00, 0.00, -0.00, -1.00, 165.3, 11.0)">f</text><text xml:space="preserve" font-family="Menlo-Bold,Menlo" font-weight="bold" font-size="24.0" fill="#C8C2BA" transform="matrix(1.00, 0.00, -0.00, -1.00, 179.7, 11.0)">f</text><text xml:space="preserve" font-family="Menlo-Bold,Menlo" font-weight="bold" font-size="24.0" fill="#C8C2BA" transform="matrix(1.00, 0.00, -0.00, -1.00, 194.2, 11.0)">e</text><text xml:space="preserve" font-family="Menlo-Bold,Menlo" font-weight="bold" font-size="24.0" fill="#C8C2BA" transform="matrix(1.00, 0.00, -0.00, -1.00, 208.6, 11.0)">e</text></g></g></g></svg>