<?xml version="1.0" encoding="UTF-8" standalone="no"?><svg xmlns="http://www.w3.org/2000/svg" xmlns:xlink="http://www.w3.org/1999/xlink" clip-rule="evenodd" stroke-miterlimit="10" viewBox="0 0 859 71"><desc>SVG generated by Keynote</desc><defs></defs><g transform="matrix(1.00, 0.00, -0.00, -1.00, 0.0, 71.0)"><text xml:space="preserve" font-family="Georgia,Georgia" font-size="70.0" fill="#D93D2A" transform="matrix(1.00, 0.00, -0.00, -1.00, -1.1, 16.3)">а</text><text xml:space="preserve" font-family="Georgia,Georgia" font-size="70.0" fill="#D93D2A" transform="matrix(1.00, 0.00, -0.00, -1.00, 34.2, 16.3)"> </text><text xml:space="preserve" font-family="Georgia,Georgia" font-size="70.0" fill="#D93D2A" transform="matrix(1.00, 0.00, -0.00, -1.00, 51.1, 16.3)">щ</text><text xml:space="preserve" font-family="Georgia,Georgia" font-size="70.0" fill="#D93D2A" transform="matrix(1.00, 0.00, -0.00, -1.00, 111.6, 16.3)">о</text><text xml:space="preserve" font-family="Georgia,Georgia" font-size="70.0" fill="#D93D2A" transform="matrix(1.00, 0.00, -0.00, -1.00, 149.3, 16.3)"> </text><text xml:space="preserve" font-family="Georgia,Georgia" font-size="70.0" fill="#D93D2A" transform="matrix(1.00, 0.00, -0.00, -1.00, 166.2, 16.3)">в</text><text xml:space="preserve" font-family="Georgia,Georgia" font-size="70.0" fill="#D93D2A" transform="matrix(1.00, 0.00, -0.00, -1.00, 202.4, 16.3)"> </text><text xml:space="preserve" font-family="Georgia,Georgia" font-size="70.0" fill="#D93D2A" transform="matrix(1.00, 0.00, -0.00, -1.00, 219.3, 16.3)">т</text><text xml:space="preserve" font-family="Georgia,Georgia" font-size="70.0" fill="#D93D2A" transform="matrix(1.00, 0.00, -0.00, -1.00, 252.2, 16.3)">о</text><text xml:space="preserve" font-family="Georgia,Georgia" font-size="70.0" fill="#D93D2A" transform="matrix(1.00, 0.00, -0.00, -1.00, 290.0, 16.3)">й</text><text xml:space="preserve" font-family="Georgia,Georgia" font-size="70.0" fill="#D93D2A" transform="matrix(1.00, 0.00, -0.00, -1.00, 332.8, 16.3)"> </text><text xml:space="preserve" font-family="Georgia,Georgia" font-size="70.0" fill="#D93D2A" transform="matrix(1.00, 0.00, -0.00, -1.00, 349.8, 16.3)">g</text><text xml:space="preserve" font-family="Georgia,Georgia" font-size="70.0" fill="#D93D2A" transform="matrix(1.00, 0.00, -0.00, -1.00, 385.5, 16.3)">u</text><text xml:space="preserve" font-family="Georgia,Georgia" font-size="70.0" fill="#D93D2A" transform="matrix(1.00, 0.00, -0.00, -1.00, 425.7, 16.3)">l</text><text xml:space="preserve" font-family="Georgia,Georgia" font-size="70.0" fill="#D93D2A" transform="matrix(1.00, 0.00, -0.00, -1.00, 445.8, 16.3)">p</text><text xml:space="preserve" font-family="Georgia,Georgia" font-size="70.0" fill="#D93D2A" transform="matrix(1.00, 0.00, -0.00, -1.00, 485.8, 16.3)">f</text><text xml:space="preserve" font-family="Georgia,Georgia" font-size="70.0" fill="#D93D2A" transform="matrix(1.00, 0.00, -0.00, -1.00, 508.6, 16.3)">i</text><text xml:space="preserve" font-family="Georgia,Georgia" font-size="70.0" fill="#D93D2A" transform="matrix(1.00, 0.00, -0.00, -1.00, 529.1, 16.3)">l</text><text xml:space="preserve" font-family="Georgia,Georgia" font-size="70.0" fill="#D93D2A" transform="matrix(1.00, 0.00, -0.00, -1.00, 549.1, 16.3)">e</text><text xml:space="preserve" font-family="Georgia,Georgia" font-size="70.0" fill="#D93D2A" transform="matrix(1.00, 0.00, -0.00, -1.00, 583.0, 16.3)"> </text><text xml:space="preserve" font-family="Georgia,Georgia" font-size="70.0" fill="#D93D2A" transform="matrix(1.00, 0.00, -0.00, -1.00, 599.7, 16.3)">п</text><text xml:space="preserve" font-family="Georgia,Georgia" font-size="70.0" fill="#D93D2A" transform="matrix(1.00, 0.00, -0.00, -1.00, 641.8, 16.3)">и</text><text xml:space="preserve" font-family="Georgia,Georgia" font-size="70.0" fill="#D93D2A" transform="matrix(1.00, 0.00, -0.00, -1.00, 684.7, 16.3)">с</text><text xml:space="preserve" font-family="Georgia,Georgia" font-size="70.0" fill="#D93D2A" transform="matrix(1.00, 0.00, -0.00, -1.00, 716.6, 16.3)">а</text><text xml:space="preserve" font-family="Georgia,Georgia" font-size="70.0" fill="#D93D2A" transform="matrix(1.00, 0.00, -0.00, -1.00, 751.8, 16.3)">т</text><text xml:space="preserve" font-family="Georgia,Georgia" font-size="70.0" fill="#D93D2A" transform="matrix(1.00, 0.00, -0.00, -1.00, 784.7, 16.3)">и</text><text xml:space="preserve" font-family="Georgia,Georgia" font-size="70.0" fill="#D93D2A" transform="matrix(1.00, 0.00, -0.00, -1.00, 827.6, 16.3)">?</text></g></svg>