<?xml version="1.0" encoding="UTF-8" standalone="no"?><svg xmlns="http://www.w3.org/2000/svg" xmlns:xlink="http://www.w3.org/1999/xlink" clip-rule="evenodd" stroke-miterlimit="10" viewBox="0 0 287 39"><desc>SVG generated by Keynote</desc><defs></defs><g transform="matrix(1.00, 0.00, -0.00, -1.00, 0.0, 39.0)"><path d="M 2.0 37.0 L 285.0 37.0 L 285.0 1.0 L 2.0 1.0 Z M 1.9 37.5 " fill="#0D0E15"></path><g><clipPath id="clip0x608002cbad60"><path d="M -1.1 -1.5 L 288.4 -1.5 L 288.4 40.5 L -1.1 40.5 Z M -1.1 -1.5 "></path></clipPath><g clip-path="url(#clip0x608002cbad60)"><text xml:space="preserve" font-family="Menlo-Bold,Menlo" font-weight="bold" font-size="24.0" fill="#C8C2BA" transform="matrix(1.00, 0.00, -0.00, -1.00, 6.4, 11.2)">n</text><text xml:space="preserve" font-family="Menlo-Bold,Menlo" font-weight="bold" font-size="24.0" fill="#C8C2BA" transform="matrix(1.00, 0.00, -0.00, -1.00, 20.9, 11.2)">p</text><text xml:space="preserve" font-family="Menlo-Bold,Menlo" font-weight="bold" font-size="24.0" fill="#C8C2BA" transform="matrix(1.00, 0.00, -0.00, -1.00, 35.3, 11.2)">m</text><text xml:space="preserve" font-family="Menlo-Bold,Menlo" font-weight="bold" font-size="24.0" fill="#C8C2BA" transform="matrix(1.00, 0.00, -0.00, -1.00, 49.8, 11.2)"> </text><text xml:space="preserve" font-family="Menlo-Bold,Menlo" font-weight="bold" font-size="24.0" fill="#C8C2BA" transform="matrix(1.00, 0.00, -0.00, -1.00, 64.2, 11.2)">i</text><text xml:space="preserve" font-family="Menlo-Bold,Menlo" font-weight="bold" font-size="24.0" fill="#C8C2BA" transform="matrix(1.00, 0.00, -0.00, -1.00, 78.7, 11.2)">n</text><text xml:space="preserve" font-family="Menlo-Bold,Menlo" font-weight="bold" font-size="24.0" fill="#C8C2BA" transform="matrix(1.00, 0.00, -0.00, -1.00, 93.1, 11.2)">s</text><text xml:space="preserve" font-family="Menlo-Bold,Menlo" font-weight="bold" font-size="24.0" fill="#C8C2BA" transform="matrix(1.00, 0.00, -0.00, -1.00, 107.6, 11.2)">t</text><text xml:space="preserve" font-family="Menlo-Bold,Menlo" font-weight="bold" font-size="24.0" fill="#C8C2BA" transform="matrix(1.00, 0.00, -0.00, -1.00, 122.0, 11.2)">a</text><text xml:space="preserve" font-family="Menlo-Bold,Menlo" font-weight="bold" font-size="24.0" fill="#C8C2BA" transform="matrix(1.00, 0.00, -0.00, -1.00, 136.5, 11.2)">l</text><text xml:space="preserve" font-family="Menlo-Bold,Menlo" font-weight="bold" font-size="24.0" fill="#C8C2BA" transform="matrix(1.00, 0.00, -0.00, -1.00, 150.9, 11.2)">l</text><text xml:space="preserve" font-family="Menlo-Bold,Menlo" font-weight="bold" font-size="24.0" fill="#C8C2BA" transform="matrix(1.00, 0.00, -0.00, -1.00, 165.4, 11.2)"> </text><text xml:space="preserve" font-family="Menlo-Bold,Menlo" font-weight="bold" font-size="24.0" fill="#C8C2BA" transform="matrix(1.00, 0.00, -0.00, -1.00, 179.8, 11.2)">-</text><text xml:space="preserve" font-family="Menlo-Bold,Menlo" font-weight="bold" font-size="24.0" fill="#C8C2BA" transform="matrix(1.00, 0.00, -0.00, -1.00, 194.3, 11.2)">g</text><text xml:space="preserve" font-family="Menlo-Bold,Menlo" font-weight="bold" font-size="24.0" fill="#C8C2BA" transform="matrix(1.00, 0.00, -0.00, -1.00, 208.7, 11.2)"> </text><text xml:space="preserve" font-family="Menlo-Bold,Menlo" font-weight="bold" font-size="24.0" fill="#C8C2BA" transform="matrix(1.00, 0.00, -0.00, -1.00, 223.2, 11.2)">g</text><text xml:space="preserve" font-family="Menlo-Bold,Menlo" font-weight="bold" font-size="24.0" fill="#C8C2BA" transform="matrix(1.00, 0.00, -0.00, -1.00, 237.6, 11.2)">u</text><text xml:space="preserve" font-family="Menlo-Bold,Menlo" font-weight="bold" font-size="24.0" fill="#C8C2BA" transform="matrix(1.00, 0.00, -0.00, -1.00, 252.1, 11.2)">l</text><text xml:space="preserve" font-family="Menlo-Bold,Menlo" font-weight="bold" font-size="24.0" fill="#C8C2BA" transform="matrix(1.00, 0.00, -0.00, -1.00, 266.5, 11.2)">p</text></g></g></g></svg>