<?xml version="1.0" encoding="UTF-8" standalone="no"?><svg xmlns="http://www.w3.org/2000/svg" xmlns:xlink="http://www.w3.org/1999/xlink" clip-rule="evenodd" stroke-miterlimit="10" viewBox="0 0 316 39"><desc>SVG generated by Keynote</desc><defs></defs><g transform="matrix(1.00, 0.00, -0.00, -1.00, 0.0, 39.0)"><path d="M 2.0 37.0 L 314.0 37.0 L 314.0 1.0 L 2.0 1.0 Z M 1.8 37.0 " fill="#0D0E15"></path><g><clipPath id="clip0x600002ea8820"><path d="M -1.2 -2.0 L 317.2 -2.0 L 317.2 40.0 L -1.2 40.0 Z M -1.2 -2.0 "></path></clipPath><g clip-path="url(#clip0x600002ea8820)"><text xml:space="preserve" font-family="Menlo-Bold,Menlo" font-weight="bold" font-size="24.0" fill="#D08979" transform="matrix(1.00, 0.00, -0.00, -1.00, 6.3, 10.7)">g</text><text xml:space="preserve" font-family="Menlo-Bold,Menlo" font-weight="bold" font-size="24.0" fill="#D08979" transform="matrix(1.00, 0.00, -0.00, -1.00, 20.7, 10.7)">u</text><text xml:space="preserve" font-family="Menlo-Bold,Menlo" font-weight="bold" font-size="24.0" fill="#D08979" transform="matrix(1.00, 0.00, -0.00, -1.00, 35.2, 10.7)">l</text><text xml:space="preserve" font-family="Menlo-Bold,Menlo" font-weight="bold" font-size="24.0" fill="#D08979" transform="matrix(1.00, 0.00, -0.00, -1.00, 49.6, 10.7)">p</text><text xml:space="preserve" font-family="Menlo-Bold,Menlo" font-weight="bold" font-size="24.0" fill="#C8C2BA" transform="matrix(1.00, 0.00, -0.00, -1.00, 64.1, 10.7)"> </text><text xml:space="preserve" font-family="Menlo-Bold,Menlo" font-weight="bold" font-size="24.0" fill="#9ED3BF" transform="matrix(1.00, 0.00, -0.00, -1.00, 78.5, 10.7)">=</text><text xml:space="preserve" font-family="Menlo-Bold,Menlo" font-weight="bold" font-size="24.0" fill="#C8C2BA" transform="matrix(1.00, 0.00, -0.00, -1.00, 93.0, 10.7)"> </text><text xml:space="preserve" font-family="Menlo-Bold,Menlo" font-weight="bold" font-size="24.0" fill="#486392" transform="matrix(1.00, 0.00, -0.00, -1.00, 107.4, 10.7)">r</text><text xml:space="preserve" font-family="Menlo-Bold,Menlo" font-weight="bold" font-size="24.0" fill="#486392" transform="matrix(1.00, 0.00, -0.00, -1.00, 121.9, 10.7)">e</text><text xml:space="preserve" font-family="Menlo-Bold,Menlo" font-weight="bold" font-size="24.0" fill="#486392" transform="matrix(1.00, 0.00, -0.00, -1.00, 136.3, 10.7)">q</text><text xml:space="preserve" font-family="Menlo-Bold,Menlo" font-weight="bold" font-size="24.0" fill="#486392" transform="matrix(1.00, 0.00, -0.00, -1.00, 150.8, 10.7)">u</text><text xml:space="preserve" font-family="Menlo-Bold,Menlo" font-weight="bold" font-size="24.0" fill="#486392" transform="matrix(1.00, 0.00, -0.00, -1.00, 165.2, 10.7)">i</text><text xml:space="preserve" font-family="Menlo-Bold,Menlo" font-weight="bold" font-size="24.0" fill="#486392" transform="matrix(1.00, 0.00, -0.00, -1.00, 179.7, 10.7)">r</text><text xml:space="preserve" font-family="Menlo-Bold,Menlo" font-weight="bold" font-size="24.0" fill="#486392" transform="matrix(1.00, 0.00, -0.00, -1.00, 194.1, 10.7)">e</text><text xml:space="preserve" font-family="Menlo-Bold,Menlo" font-weight="bold" font-size="24.0" fill="#C8C2BA" transform="matrix(1.00, 0.00, -0.00, -1.00, 208.6, 10.7)"> </text><text xml:space="preserve" font-family="Menlo-Bold,Menlo" font-weight="bold" font-size="24.0" fill="#E6CA7C" transform="matrix(1.00, 0.00, -0.00, -1.00, 223.0, 10.7)">`</text><text xml:space="preserve" font-family="Menlo-Bold,Menlo" font-weight="bold" font-size="24.0" fill="#E6CA7C" transform="matrix(1.00, 0.00, -0.00, -1.00, 237.5, 10.7)">g</text><text xml:space="preserve" font-family="Menlo-Bold,Menlo" font-weight="bold" font-size="24.0" fill="#E6CA7C" transform="matrix(1.00, 0.00, -0.00, -1.00, 251.9, 10.7)">u</text><text xml:space="preserve" font-family="Menlo-Bold,Menlo" font-weight="bold" font-size="24.0" fill="#E6CA7C" transform="matrix(1.00, 0.00, -0.00, -1.00, 266.4, 10.7)">l</text><text xml:space="preserve" font-family="Menlo-Bold,Menlo" font-weight="bold" font-size="24.0" fill="#E6CA7C" transform="matrix(1.00, 0.00, -0.00, -1.00, 280.8, 10.7)">p</text><text xml:space="preserve" font-family="Menlo-Bold,Menlo" font-weight="bold" font-size="24.0" fill="#E6CA7C" transform="matrix(1.00, 0.00, -0.00, -1.00, 295.3, 10.7)">`</text></g></g></g></svg>