<?xml version="1.0" encoding="UTF-8" standalone="no"?><svg xmlns="http://www.w3.org/2000/svg" xmlns:xlink="http://www.w3.org/1999/xlink" clip-rule="evenodd" stroke-miterlimit="10" viewBox="0 0 619 39"><desc>SVG generated by Keynote</desc><defs></defs><g transform="matrix(1.00, 0.00, -0.00, -1.00, 0.0, 39.0)"><path d="M 2.0 38.0 L 618.0 38.0 L 618.0 2.0 L 2.0 2.0 Z M 1.7 37.5 " fill="#0D0E15"></path><g><clipPath id="clip0x600002eb2180"><path d="M -1.3 -1.4 L 620.6 -1.4 L 620.6 40.5 L -1.3 40.5 Z M -1.3 -1.4 "></path></clipPath><g clip-path="url(#clip0x600002eb2180)"><text xml:space="preserve" font-family="Menlo-Bold,Menlo" font-weight="bold" font-size="24.0" fill="#D08979" transform="matrix(1.00, 0.00, -0.00, -1.00, 6.2, 11.2)">d</text><text xml:space="preserve" font-family="Menlo-Bold,Menlo" font-weight="bold" font-size="24.0" fill="#D08979" transform="matrix(1.00, 0.00, -0.00, -1.00, 20.7, 11.2)">o</text><text xml:space="preserve" font-family="Menlo-Bold,Menlo" font-weight="bold" font-size="24.0" fill="#D08979" transform="matrix(1.00, 0.00, -0.00, -1.00, 35.1, 11.2)">_</text><text xml:space="preserve" font-family="Menlo-Bold,Menlo" font-weight="bold" font-size="24.0" fill="#D08979" transform="matrix(1.00, 0.00, -0.00, -1.00, 49.6, 11.2)">s</text><text xml:space="preserve" font-family="Menlo-Bold,Menlo" font-weight="bold" font-size="24.0" fill="#D08979" transform="matrix(1.00, 0.00, -0.00, -1.00, 64.0, 11.2)">o</text><text xml:space="preserve" font-family="Menlo-Bold,Menlo" font-weight="bold" font-size="24.0" fill="#D08979" transform="matrix(1.00, 0.00, -0.00, -1.00, 78.5, 11.2)">m</text><text xml:space="preserve" font-family="Menlo-Bold,Menlo" font-weight="bold" font-size="24.0" fill="#D08979" transform="matrix(1.00, 0.00, -0.00, -1.00, 92.9, 11.2)">e</text><text xml:space="preserve" font-family="Menlo-Bold,Menlo" font-weight="bold" font-size="24.0" fill="#D08979" transform="matrix(1.00, 0.00, -0.00, -1.00, 107.4, 11.2)">t</text><text xml:space="preserve" font-family="Menlo-Bold,Menlo" font-weight="bold" font-size="24.0" fill="#D08979" transform="matrix(1.00, 0.00, -0.00, -1.00, 121.8, 11.2)">h</text><text xml:space="preserve" font-family="Menlo-Bold,Menlo" font-weight="bold" font-size="24.0" fill="#D08979" transform="matrix(1.00, 0.00, -0.00, -1.00, 136.3, 11.2)">i</text><text xml:space="preserve" font-family="Menlo-Bold,Menlo" font-weight="bold" font-size="24.0" fill="#D08979" transform="matrix(1.00, 0.00, -0.00, -1.00, 150.7, 11.2)">n</text><text xml:space="preserve" font-family="Menlo-Bold,Menlo" font-weight="bold" font-size="24.0" fill="#D08979" transform="matrix(1.00, 0.00, -0.00, -1.00, 165.2, 11.2)">g</text><text xml:space="preserve" font-family="Menlo-Bold,Menlo" font-weight="bold" font-size="24.0" fill="#C8C2BA" transform="matrix(1.00, 0.00, -0.00, -1.00, 179.6, 11.2)"> </text><text xml:space="preserve" font-family="Menlo-Bold,Menlo" font-weight="bold" font-size="24.0" fill="#9ED3BF" transform="matrix(1.00, 0.00, -0.00, -1.00, 194.1, 11.2)">=</text><text xml:space="preserve" font-family="Menlo-Bold,Menlo" font-weight="bold" font-size="24.0" fill="#C8C2BA" transform="matrix(1.00, 0.00, -0.00, -1.00, 208.5, 11.2)"> </text><text xml:space="preserve" font-family="Menlo-Bold,Menlo" font-weight="bold" font-size="24.0" fill="#486392" transform="matrix(1.00, 0.00, -0.00, -1.00, 223.0, 11.2)">r</text><text xml:space="preserve" font-family="Menlo-Bold,Menlo" font-weight="bold" font-size="24.0" fill="#486392" transform="matrix(1.00, 0.00, -0.00, -1.00, 237.4, 11.2)">e</text><text xml:space="preserve" font-family="Menlo-Bold,Menlo" font-weight="bold" font-size="24.0" fill="#486392" transform="matrix(1.00, 0.00, -0.00, -1.00, 251.9, 11.2)">q</text><text xml:space="preserve" font-family="Menlo-Bold,Menlo" font-weight="bold" font-size="24.0" fill="#486392" transform="matrix(1.00, 0.00, -0.00, -1.00, 266.3, 11.2)">u</text><text xml:space="preserve" font-family="Menlo-Bold,Menlo" font-weight="bold" font-size="24.0" fill="#486392" transform="matrix(1.00, 0.00, -0.00, -1.00, 280.8, 11.2)">i</text><text xml:space="preserve" font-family="Menlo-Bold,Menlo" font-weight="bold" font-size="24.0" fill="#486392" transform="matrix(1.00, 0.00, -0.00, -1.00, 295.2, 11.2)">r</text><text xml:space="preserve" font-family="Menlo-Bold,Menlo" font-weight="bold" font-size="24.0" fill="#486392" transform="matrix(1.00, 0.00, -0.00, -1.00, 309.7, 11.2)">e</text><text xml:space="preserve" font-family="Menlo-Bold,Menlo" font-weight="bold" font-size="24.0" fill="#C8C2BA" transform="matrix(1.00, 0.00, -0.00, -1.00, 324.1, 11.2)"> </text><text xml:space="preserve" font-family="Menlo-Bold,Menlo" font-weight="bold" font-size="24.0" fill="#E6CA7C" transform="matrix(1.00, 0.00, -0.00, -1.00, 338.6, 11.2)">`</text><text xml:space="preserve" font-family="Menlo-Bold,Menlo" font-weight="bold" font-size="24.0" fill="#E6CA7C" transform="matrix(1.00, 0.00, -0.00, -1.00, 353.0, 11.2)">g</text><text xml:space="preserve" font-family="Menlo-Bold,Menlo" font-weight="bold" font-size="24.0" fill="#E6CA7C" transform="matrix(1.00, 0.00, -0.00, -1.00, 367.5, 11.2)">u</text><text xml:space="preserve" font-family="Menlo-Bold,Menlo" font-weight="bold" font-size="24.0" fill="#E6CA7C" transform="matrix(1.00, 0.00, -0.00, -1.00, 381.9, 11.2)">l</text><text xml:space="preserve" font-family="Menlo-Bold,Menlo" font-weight="bold" font-size="24.0" fill="#E6CA7C" transform="matrix(1.00, 0.00, -0.00, -1.00, 396.4, 11.2)">p</text><text xml:space="preserve" font-family="Menlo-Bold,Menlo" font-weight="bold" font-size="24.0" fill="#E6CA7C" transform="matrix(1.00, 0.00, -0.00, -1.00, 410.8, 11.2)">-</text><text xml:space="preserve" font-family="Menlo-Bold,Menlo" font-weight="bold" font-size="24.0" fill="#E6CA7C" transform="matrix(1.00, 0.00, -0.00, -1.00, 425.3, 11.2)">d</text><text xml:space="preserve" font-family="Menlo-Bold,Menlo" font-weight="bold" font-size="24.0" fill="#E6CA7C" transform="matrix(1.00, 0.00, -0.00, -1.00, 439.7, 11.2)">o</text><text xml:space="preserve" font-family="Menlo-Bold,Menlo" font-weight="bold" font-size="24.0" fill="#E6CA7C" transform="matrix(1.00, 0.00, -0.00, -1.00, 454.2, 11.2)">_</text><text xml:space="preserve" font-family="Menlo-Bold,Menlo" font-weight="bold" font-size="24.0" fill="#E6CA7C" transform="matrix(1.00, 0.00, -0.00, -1.00, 468.6, 11.2)">s</text><text xml:space="preserve" font-family="Menlo-Bold,Menlo" font-weight="bold" font-size="24.0" fill="#E6CA7C" transform="matrix(1.00, 0.00, -0.00, -1.00, 483.1, 11.2)">o</text><text xml:space="preserve" font-family="Menlo-Bold,Menlo" font-weight="bold" font-size="24.0" fill="#E6CA7C" transform="matrix(1.00, 0.00, -0.00, -1.00, 497.5, 11.2)">m</text><text xml:space="preserve" font-family="Menlo-Bold,Menlo" font-weight="bold" font-size="24.0" fill="#E6CA7C" transform="matrix(1.00, 0.00, -0.00, -1.00, 512.0, 11.2)">e</text><text xml:space="preserve" font-family="Menlo-Bold,Menlo" font-weight="bold" font-size="24.0" fill="#E6CA7C" transform="matrix(1.00, 0.00, -0.00, -1.00, 526.4, 11.2)">t</text><text xml:space="preserve" font-family="Menlo-Bold,Menlo" font-weight="bold" font-size="24.0" fill="#E6CA7C" transform="matrix(1.00, 0.00, -0.00, -1.00, 540.9, 11.2)">h</text><text xml:space="preserve" font-family="Menlo-Bold,Menlo" font-weight="bold" font-size="24.0" fill="#E6CA7C" transform="matrix(1.00, 0.00, -0.00, -1.00, 555.3, 11.2)">i</text><text xml:space="preserve" font-family="Menlo-Bold,Menlo" font-weight="bold" font-size="24.0" fill="#E6CA7C" transform="matrix(1.00, 0.00, -0.00, -1.00, 569.8, 11.2)">n</text><text xml:space="preserve" font-family="Menlo-Bold,Menlo" font-weight="bold" font-size="24.0" fill="#E6CA7C" transform="matrix(1.00, 0.00, -0.00, -1.00, 584.2, 11.2)">g</text><text xml:space="preserve" font-family="Menlo-Bold,Menlo" font-weight="bold" font-size="24.0" fill="#E6CA7C" transform="matrix(1.00, 0.00, -0.00, -1.00, 598.7, 11.2)">`</text></g></g></g></svg>